<?xml version="1.0" encoding="UTF-8"?>
<svg version="1.1" xmlns="http://www.w3.org/2000/svg" width="512" height="512">
<path d="M0 0 C2.34880684 -0.00271946 4.69761282 -0.00628568 7.04641724 -0.01062012 C13.34808117 -0.019633 19.64967864 -0.01624636 25.95134354 -0.00986195 C31.91780867 -0.00526506 37.88426815 -0.00880076 43.85073316 -0.01171634 C56.38718737 -0.0173855 68.92361207 -0.01091586 81.46006143 -0.0001156 C92.15861038 0.00881677 102.85711589 0.00726376 113.55566406 -0.00195312 C126.05491503 -0.01271668 138.55414031 -0.0168365 151.05339527 -0.0107286 C157.64228459 -0.00759476 164.23114991 -0.00712617 170.82003784 -0.01380157 C177.01895959 -0.01964497 183.21780055 -0.01545243 189.41671371 -0.00401306 C191.67068219 -0.00140341 193.92465765 -0.00206686 196.1786232 -0.00653839 C227.93791223 -0.06366003 258.89082 0.61263278 283.44140625 23.25878906 C284.07175781 23.80921875 284.70210938 24.35964844 285.3515625 24.92675781 C304.4877522 42.58087359 309.29093743 67.41763861 310.44140625 92.25878906 C310.82707671 105.18384324 310.72744476 118.12501856 310.71005726 131.05423975 C310.7049196 136.08384052 310.70970976 141.11343475 310.71282959 146.14303589 C310.7164463 154.57990857 310.71173025 163.01674598 310.70214844 171.45361328 C310.69126128 181.15066765 310.69480073 190.8476379 310.70580125 200.54469025 C310.7149316 208.93522894 310.71613174 217.32574258 310.71092391 225.71628463 C310.70783648 230.69934011 310.70730457 235.68235628 310.71399689 240.66540909 C310.79534647 311.13226711 310.79534647 311.13226711 288.44140625 336.25878906 C287.53648437 337.28746094 287.53648437 337.28746094 286.61328125 338.33691406 C268.62491319 357.53458418 244.88836719 363.37572747 219.49359131 364.37475586 C211.51292545 364.57387972 203.52763278 364.62448253 195.54467773 364.63964844 C192.54499692 364.64917804 189.54632739 364.68287636 186.546875 364.71972656 C185.64784958 364.71468109 184.74882416 364.70963562 183.82255554 364.70443726 C176.94904837 364.81136705 171.61361598 366.35413876 166.47021484 371.0637207 C166.01469238 371.67594482 165.55916992 372.28816895 165.08984375 372.91894531 C164.55633301 373.61995361 164.02282227 374.32096191 163.47314453 375.04321289 C162.9264209 375.79497803 162.37969727 376.54674316 161.81640625 377.32128906 C161.21940918 378.11494873 160.62241211 378.9086084 160.00732422 379.72631836 C158.13481469 382.22487923 156.2861434 384.73967404 154.44140625 387.25878906 C153.29087181 388.81645551 152.13984091 390.3737554 150.98828125 391.93066406 C149.27116739 394.25700521 147.55638543 396.58495601 145.84667969 398.91674805 C141.30404575 405.11119122 136.70591377 411.26156911 132.06640625 417.38378906 C131.10371826 418.66249878 131.10371826 418.66249878 130.12158203 419.96704102 C117.58548312 436.45364566 117.58548312 436.45364566 111.19140625 439.25878906 C110.381875 439.63003906 109.57234375 440.00128906 108.73828125 440.38378906 C100.0948962 443.67650718 90.69241303 443.27241271 82.19873047 439.67724609 C74.14497838 435.53413474 68.55957111 428.29085214 63.37890625 421.07128906 C62.08038955 419.30105142 60.78087657 417.53154422 59.48046875 415.76269531 C58.81821289 414.85664551 58.15595703 413.9505957 57.47363281 413.01708984 C54.12408644 408.47081703 50.68757711 403.99166 47.25390625 399.50878906 C43.45668677 394.54372467 39.66527855 389.57609008 35.94140625 384.55566406 C35.12965942 383.4627002 35.12965942 383.4627002 34.30151367 382.34765625 C33.30843561 381.00725935 32.31871049 379.66436805 31.33325195 378.31835938 C27.12068289 372.63411362 23.16654004 367.9525411 16.44140625 365.25878906 C13.12519151 364.82502228 9.83725494 364.81780688 6.49609375 364.81738281 C5.53099884 364.80417496 4.56590393 364.7909671 3.57156372 364.77735901 C0.4864833 364.7366102 -2.59830644 364.7148926 -5.68359375 364.69628906 C-36.34455154 364.45271381 -65.6201084 363.88198049 -89.55859375 342.25878906 C-90.31527344 341.59492188 -91.07195312 340.93105469 -91.8515625 340.24707031 C-110.08326962 323.27055818 -116.33558043 300.39563805 -117.55859375 276.25878906 C-117.96322347 263.42468878 -117.84448732 250.57067633 -117.82724476 237.73198938 C-117.82211328 232.7033127 -117.8268959 227.67464262 -117.83001709 222.64596558 C-117.83363688 214.20553254 -117.82891092 205.7651347 -117.81933594 197.32470703 C-117.80846235 187.62887022 -117.81197711 177.93311763 -117.82298875 168.23728287 C-117.83212719 159.84845175 -117.83331495 151.45964566 -117.82811141 143.07081115 C-117.82502653 138.08878 -117.82448445 133.10678815 -117.83118439 128.12475967 C-117.91871838 52.58338487 -117.91871838 52.58338487 -94.55859375 27.25878906 C-94.00816406 26.6284375 -93.45773438 25.99808594 -92.890625 25.34863281 C-78.48375747 9.73229986 -58.2417132 2.82773503 -37.57397461 1.16168213 C-36.52584311 1.07658142 -35.47771162 0.99148072 -34.39781857 0.9038012 C-22.9303889 0.04114045 -11.49390611 -0.02280218 0 0 Z M-62.515625 57.02050781 C-75.10456307 70.81297725 -73.7094261 88.41836385 -73.70385742 105.92041016 C-73.70685345 107.80386928 -73.710257 109.6873278 -73.71403503 111.57078552 C-73.72283288 116.66381516 -73.72521133 121.75682798 -73.72585082 126.84986448 C-73.72656358 130.0370536 -73.72870214 133.22423848 -73.73134804 136.41142654 C-73.74058665 147.54512044 -73.74468468 158.6788024 -73.74389648 169.8125 C-73.7432957 180.16781038 -73.75385147 190.52306867 -73.76964015 200.87836587 C-73.7827403 209.78993644 -73.78807936 218.70149002 -73.78744107 227.61307013 C-73.78718687 232.92635472 -73.7899954 238.23959295 -73.80061913 243.55286789 C-73.81034215 248.55159163 -73.81035059 253.55022507 -73.80310249 258.5489521 C-73.80206195 260.37578654 -73.80438777 262.20262674 -73.81046295 264.02945137 C-73.86380852 281.19180006 -73.2145577 296.10673953 -60.7734375 309.21972656 C-46.59382073 322.27397692 -27.5106679 320.72044412 -9.49609375 320.82128906 C15.44595791 321.00051989 37.38989572 321.58286257 56.765625 339.39550781 C63.03030793 346.030745 68.23041753 353.6273794 73.5859375 360.99707031 C78.37997854 367.57656434 83.33426112 374.03235295 88.28735352 380.49243164 C89.25306274 381.75349731 89.25306274 381.75349731 90.23828125 383.04003906 C90.80901367 383.78318359 91.37974609 384.52632813 91.96777344 385.29199219 C93.17919395 386.90882514 94.32073496 388.57778213 95.44140625 390.25878906 C98.80068394 389.13902983 99.25055381 388.52276304 101.234375 385.74316406 C101.77425049 384.99679687 102.31412598 384.25042969 102.87036133 383.48144531 C103.45068115 382.66546875 104.03100098 381.84949219 104.62890625 381.00878906 C105.88517761 379.27329743 107.14305193 377.53896526 108.40234375 375.80566406 C109.38992676 374.44344727 109.38992676 374.44344727 110.39746094 373.05371094 C115.71761749 365.77884804 121.21449628 358.63554497 126.71875 351.49951172 C128.18017393 349.5985836 129.6256612 347.68708998 131.06640625 345.77050781 C141.09991601 332.81653003 155.65129354 324.19849605 171.88964844 321.73583984 C177.21465865 321.09031097 182.528835 321.0858188 187.88671875 321.04785156 C190.12110094 321.01977254 192.35547584 320.99110802 194.58984375 320.96191406 C198.07161162 320.92082548 201.55324484 320.88388911 205.03515625 320.85742188 C231.74010166 321.04478386 231.74010166 321.04478386 254.5 308.37597656 C267.06056584 295.0320636 266.74218459 278.62226634 266.70019531 261.41772461 C266.70291021 259.53883733 266.70647392 257.65995112 266.71081543 255.78106689 C266.71988429 250.70859121 266.71641749 245.63619747 266.71005726 240.56372046 C266.7049664 235.23362504 266.70969745 229.90353627 266.71282959 224.57344055 C266.71646122 215.62194571 266.71169222 206.67048395 266.70214844 197.71899414 C266.69127544 187.40232299 266.69478434 177.08573097 266.70580125 166.76906174 C266.71490898 157.88117859 266.71614212 148.99331912 266.71092391 140.10543281 C266.70782203 134.810532 266.70734526 129.51566824 266.71399689 124.22076988 C266.71982027 119.23759681 266.71568311 114.25452461 266.70420837 109.2713623 C266.70158785 107.45385212 266.70228161 105.63633329 266.7067337 103.81882668 C266.74683926 85.76677507 266.75756635 69.21701497 253.6796875 55.30175781 C242.22112074 44.84306599 228.52502483 44.1012253 213.73457336 44.12507629 C212.1697714 44.12167796 212.1697714 44.12167796 210.57335728 44.11821097 C207.09617533 44.1119076 203.61903272 44.11269798 200.1418457 44.11352539 C197.64109751 44.1105316 195.14034978 44.10712856 192.63960266 44.10334778 C186.56211406 44.09544107 180.48464078 44.09229407 174.40714846 44.0917354 C169.46278312 44.091259 164.51842096 44.08919808 159.57405663 44.08603477 C145.53174035 44.0772347 131.4894317 44.07261433 117.44711266 44.07336525 C116.31325649 44.07342518 116.31325649 44.07342518 115.15649414 44.07348633 C114.02124086 44.07354765 114.02124086 44.07354765 112.86305317 44.07361021 C100.60606935 44.07401639 88.34911629 44.06445215 76.09214137 44.05034796 C63.48310829 44.03595407 50.87409018 44.02907945 38.26504868 44.02994174 C31.19558454 44.03027269 24.12615264 44.02757046 17.05669594 44.01676369 C10.40412869 44.00665876 3.75161763 44.00702473 -2.90095711 44.01428032 C-5.33488439 44.01532235 -7.76881596 44.01298608 -10.2027359 44.00691986 C-38.53602757 43.45906498 -38.53602757 43.45906498 -62.515625 57.02050781 Z " fill="#000000" transform="translate(159.55859375,41.7412109375)"/>
<path d="M0 0 C0.62132812 0.391875 1.24265625 0.78375 1.8828125 1.1875 C2.50414062 1.538125 3.12546875 1.88875 3.765625 2.25 C10.62521869 6.52611035 14.82446272 13.4804369 16.8828125 21.1875 C17.67485162 30.07491567 17.78212394 38.41951278 12.8828125 46.1875 C12.5321875 46.80882812 12.1815625 47.43015625 11.8203125 48.0703125 C7.54420215 54.92990619 0.5898756 59.12915022 -7.1171875 61.1875 C-16.00460317 61.97953912 -24.34920028 62.08681144 -32.1171875 57.1875 C-33.04917969 56.6615625 -33.04917969 56.6615625 -34 56.125 C-40.85959369 51.84888965 -45.05883772 44.8945631 -47.1171875 37.1875 C-47.90922662 28.30008433 -48.01649894 19.95548722 -43.1171875 12.1875 C-42.7665625 11.56617188 -42.4159375 10.94484375 -42.0546875 10.3046875 C-33.73233229 -3.04575731 -13.65305461 -7.47543675 0 0 Z " fill="#000000" transform="translate(367.1171875,194.8125)"/>
<path d="M0 0 C0.62132812 0.391875 1.24265625 0.78375 1.8828125 1.1875 C2.50414062 1.538125 3.12546875 1.88875 3.765625 2.25 C10.62521869 6.52611035 14.82446272 13.4804369 16.8828125 21.1875 C17.67485162 30.07491567 17.78212394 38.41951278 12.8828125 46.1875 C12.5321875 46.80882812 12.1815625 47.43015625 11.8203125 48.0703125 C7.54420215 54.92990619 0.5898756 59.12915022 -7.1171875 61.1875 C-16.00460317 61.97953912 -24.34920028 62.08681144 -32.1171875 57.1875 C-33.04917969 56.6615625 -33.04917969 56.6615625 -34 56.125 C-40.85959369 51.84888965 -45.05883772 44.8945631 -47.1171875 37.1875 C-47.90922662 28.30008433 -48.01649894 19.95548722 -43.1171875 12.1875 C-42.7665625 11.56617188 -42.4159375 10.94484375 -42.0546875 10.3046875 C-33.73233229 -3.04575731 -13.65305461 -7.47543675 0 0 Z " fill="#000000" transform="translate(271.1171875,194.8125)"/>
<path d="M0 0 C0.62132812 0.391875 1.24265625 0.78375 1.8828125 1.1875 C2.50414062 1.538125 3.12546875 1.88875 3.765625 2.25 C10.62521869 6.52611035 14.82446272 13.4804369 16.8828125 21.1875 C17.67485162 30.07491567 17.78212394 38.41951278 12.8828125 46.1875 C12.5321875 46.80882812 12.1815625 47.43015625 11.8203125 48.0703125 C7.54420215 54.92990619 0.5898756 59.12915022 -7.1171875 61.1875 C-16.00460317 61.97953912 -24.34920028 62.08681144 -32.1171875 57.1875 C-33.04917969 56.6615625 -33.04917969 56.6615625 -34 56.125 C-40.85959369 51.84888965 -45.05883772 44.8945631 -47.1171875 37.1875 C-47.90922662 28.30008433 -48.01649894 19.95548722 -43.1171875 12.1875 C-42.7665625 11.56617188 -42.4159375 10.94484375 -42.0546875 10.3046875 C-33.73233229 -3.04575731 -13.65305461 -7.47543675 0 0 Z " fill="#000000" transform="translate(175.1171875,194.8125)"/>
</svg>
