<?xml version="1.0" encoding="UTF-8"?>
<svg version="1.1" xmlns="http://www.w3.org/2000/svg" width="512" height="512">
<path d="M0 0 C0.89307344 -0.00297112 1.78614688 -0.00594224 2.70628315 -0.0090034 C5.68750425 -0.01764848 8.66868499 -0.01919511 11.6499176 -0.02069092 C13.79245082 -0.02532218 15.93498321 -0.03034725 18.07751465 -0.03573608 C23.89203828 -0.04883523 29.70655038 -0.05530058 35.52108645 -0.05974674 C39.15905902 -0.0626824 42.79702847 -0.06678821 46.43499947 -0.07125092 C57.83240571 -0.08492134 69.22980479 -0.09458936 80.62721866 -0.09845281 C93.75508151 -0.10292797 106.88283996 -0.12045268 120.01067108 -0.1494534 C130.17573616 -0.17112422 140.34077199 -0.18116002 150.50585991 -0.18249393 C156.568283 -0.18353839 162.63060788 -0.18936917 168.69300652 -0.20731354 C174.40333843 -0.22388701 180.11349931 -0.22590497 185.82384682 -0.21717453 C187.90862361 -0.21640901 189.99340996 -0.22068206 192.07816315 -0.23063278 C217.94527318 -0.34676163 240.93608488 4.57043486 260.91383362 22.14044189 C261.66406799 22.79528564 262.41430237 23.45012939 263.18727112 24.12481689 C279.1825013 39.0536984 287.61968287 59.2982872 289.18878639 80.93115163 C289.29844985 84.79707037 289.31972386 88.65659253 289.30151367 92.52340698 C289.30569975 93.99979599 289.31118417 95.47618177 289.31783348 96.95256174 C289.33213921 100.95981119 289.32809071 104.96685238 289.32066667 108.97411251 C289.31590017 113.31499028 289.32847513 117.65582521 289.33868408 121.99668884 C289.35580778 130.4802498 289.35672578 138.96373648 289.35147118 147.44731022 C289.34741741 154.34565274 289.3488873 161.24397343 289.35421944 168.14231491 C289.35496786 169.12690891 289.35571628 170.11150292 289.35648738 171.1259331 C289.35801896 173.12655733 289.35955731 175.12718154 289.36110235 177.12780575 C289.37480327 195.85256496 289.36940591 214.57728227 289.35791714 233.3020405 C289.3479799 250.41173576 289.36093821 267.52132295 289.38485133 284.63100155 C289.40926235 302.23040005 289.41884573 319.82974825 289.4121986 337.42916334 C289.40871179 347.29758117 289.41090327 357.16591586 289.42844963 367.03432083 C289.44319637 375.43167845 289.4437744 383.82889432 289.42637872 392.22624923 C289.41788808 396.50554669 289.41567171 400.78459118 289.43103027 405.0638752 C289.44494464 408.98949812 289.44002864 412.91465292 289.42079104 416.84024923 C289.41705139 418.25185328 289.41989357 419.66349545 289.43040269 421.07506533 C289.53718492 436.53031358 286.18093445 449.94183674 275.69508362 461.60919189 C265.917809 471.13251133 253.6247582 476.01500716 240.10133362 476.45294189 C223.26337225 476.08968638 211.62586857 468.2087013 199.47193909 457.49688721 C197.18672805 455.50744306 194.83326815 453.60648667 192.47633362 451.70294189 C187.05812783 447.29131135 181.76112512 442.74720547 176.46461487 438.19122314 C169.20352359 431.94616869 161.90829933 425.7441304 154.47633362 419.70294189 C149.61254337 415.74536002 144.8550213 411.67501743 140.10548401 407.58209229 C136.58084443 404.550989 133.02343479 401.57058873 129.41383362 398.64044189 C123.9489942 394.20228089 118.60733915 389.62842511 113.27320862 385.03497314 C112.72342346 384.56784912 112.17363831 384.1007251 111.60719299 383.6194458 C110.41529597 382.57842617 109.25197972 381.50422318 108.11109924 380.40753174 C104.72020423 377.05641358 104.72020423 377.05641358 100.26539612 376.01544189 C97.43105052 377.3714079 95.55387632 378.95872853 93.28883362 381.14044189 C89.83408583 384.37608326 86.34805959 387.4805649 82.66383362 390.45294189 C78.39651927 393.90886549 74.20079678 397.43431094 70.03883362 401.01544189 C61.5864427 408.28544584 53.12807665 415.54523849 44.47633362 422.57794189 C39.61254337 426.53552377 34.8550213 430.60586636 30.10548401 434.6987915 C25.71503925 438.47446593 21.25224081 442.15027924 16.75367737 445.79669189 C14.05779574 448.02162859 11.41128188 450.29285395 8.77174377 452.58380127 C-6.20937363 465.5725971 -20.16349316 477.07625566 -41.08226013 476.42169189 C-54.01848916 475.2104975 -66.28078496 469.87859677 -75.08616638 460.14044189 C-82.68251853 450.02234989 -87.20273468 439.62777597 -87.21759415 426.90268135 C-87.22143529 425.66399681 -87.22527644 424.42531227 -87.22923398 423.14909184 C-87.22845383 421.78253049 -87.22757507 420.41596919 -87.22660828 419.04940796 C-87.22919352 417.59132778 -87.23220712 416.13324832 -87.23561168 414.67516983 C-87.24366668 410.67205347 -87.24547042 406.66895506 -87.24620914 402.66583157 C-87.24806239 398.34656737 -87.25561124 394.02731242 -87.26234436 389.70805359 C-87.275919 380.26342219 -87.28195145 370.81879505 -87.28635502 361.37415552 C-87.28911972 355.47263022 -87.29335757 349.57110656 -87.29785919 343.66958237 C-87.31005225 327.31901973 -87.3203505 310.9684584 -87.32373428 294.61789131 C-87.32395385 293.57162504 -87.32417342 292.52535876 -87.32439964 291.44738745 C-87.32461791 290.39865686 -87.32483619 289.34992628 -87.32506108 288.26941597 C-87.32550454 286.14439336 -87.32595111 284.01937075 -87.32640076 281.89434814 C-87.32662219 280.84026988 -87.32684362 279.78619161 -87.32707176 278.70017157 C-87.33101619 261.63647919 -87.34845921 244.5728296 -87.37176028 227.50915374 C-87.3955089 209.97561242 -87.40793778 192.44209254 -87.4091022 174.90853488 C-87.41001715 165.07009416 -87.41572375 155.23170916 -87.43392181 145.39328384 C-87.44937044 137.01187172 -87.45441539 128.63053253 -87.44618371 120.24910887 C-87.4422936 115.977768 -87.44312593 111.70657379 -87.45724106 107.43525124 C-87.47007949 103.51413894 -87.46869649 99.593282 -87.45665035 95.67216955 C-87.45471035 94.26426487 -87.4576918 92.85634147 -87.46649471 91.44846298 C-87.60506165 67.76008642 -80.88711534 46.10270365 -65.08616638 28.14044189 C-64.41972107 27.37860596 -63.75327576 26.61677002 -63.06663513 25.83184814 C-46.97240782 8.60296287 -23.26313897 -0.02444159 0 0 Z M-42.08616638 52.14044189 C-49.77573451 61.93251145 -54.19927891 73.72500618 -54.22038746 86.19941425 C-54.2248453 87.42362436 -54.22930315 88.64783446 -54.23389608 89.90914184 C-54.23380679 91.26450623 -54.23361695 92.61987062 -54.2333374 93.97523499 C-54.23663802 95.41752985 -54.24036401 96.8598238 -54.24447888 98.30211657 C-54.25448398 102.26592716 -54.25821325 106.22972261 -54.26086819 110.19354403 C-54.26477552 114.46836592 -54.27435337 118.74317586 -54.28308105 123.01799011 C-54.30283051 133.34009343 -54.3129085 143.6621977 -54.32180884 153.98431519 C-54.32619312 158.84521821 -54.33155947 163.70612016 -54.33679771 168.56702232 C-54.35380638 184.72454636 -54.36830162 200.88206972 -54.37554646 217.03960133 C-54.37745633 221.23117384 -54.37937667 225.42274635 -54.3813324 229.61431885 C-54.38181614 230.65610803 -54.38229988 231.69789721 -54.38279828 232.77125575 C-54.39110267 249.65613435 -54.41644812 266.54094219 -54.44891308 283.42578987 C-54.48197122 300.76037844 -54.49999398 318.09493104 -54.5031907 335.4295513 C-54.50535665 345.16269711 -54.51411807 354.89573966 -54.53965187 364.62885475 C-54.56134162 372.91574549 -54.56941769 381.20250788 -54.55968509 389.48942379 C-54.55513575 393.7172813 -54.55706343 397.94487387 -54.57644653 402.17269516 C-54.59404542 406.04476722 -54.59310742 409.91638041 -54.57754924 413.78845712 C-54.5751682 415.18750418 -54.57952251 416.58658275 -54.59137789 417.98558161 C-54.65346643 425.79762576 -54.4250834 431.51507629 -50.08616638 438.14044189 C-46.20823892 441.65763191 -42.65520329 442.69938768 -37.62522888 443.45294189 C-30.41988221 442.56613 -24.95280656 437.66920374 -19.77366638 432.95294189 C-18.45702631 431.78246829 -17.13931203 430.61320196 -15.82054138 429.44512939 C-15.18309998 428.87761963 -14.54565857 428.31010986 -13.88890076 427.72540283 C-11.48481905 425.61173836 -9.01377151 423.58918065 -6.52366638 421.57794189 C-2.31418119 418.16907201 1.81144333 414.67645121 5.91383362 411.14044189 C10.03847662 407.58586698 14.18591266 404.07251891 18.41383362 400.64044189 C23.81459534 396.25331287 29.08851062 391.72820778 34.36305237 387.19122314 C41.62414365 380.94616869 48.91936791 374.7441304 56.35133362 368.70294189 C60.5977687 365.24769123 64.76656035 361.71320112 68.91383362 358.14044189 C93.85095417 336.68039262 93.85095417 336.68039262 102.74586487 336.87481689 C110.10035227 337.77590724 115.09286962 342.86683551 120.29273987 347.72637939 C122.84426779 350.07637083 125.46568267 352.27381852 128.16383362 354.45294189 C132.47834247 357.94476897 136.71092873 361.51620608 140.91383362 365.14044189 C145.03838973 368.69511404 149.18591674 372.20836819 153.41383362 375.64044189 C158.25980151 379.57422759 162.9948189 383.62491949 167.72242737 387.69903564 C171.24701265 390.73002474 174.80432194 393.71036771 178.41383362 396.64044189 C183.81459534 401.02757092 189.08851062 405.55267601 194.36305237 410.08966064 C202.58395817 417.1602238 210.85779698 424.16603478 219.27711487 430.99981689 C221.07417851 432.45876634 222.86294881 433.92797668 224.64430237 435.40606689 C225.51699768 436.12278564 226.38969299 436.83950439 227.28883362 437.57794189 C228.05969299 438.21602783 228.83055237 438.85411377 229.62477112 439.51153564 C234.40861696 442.91573993 238.019101 443.50808094 243.70289612 442.66778564 C248.7554408 441.4626734 251.25335644 439.15027315 254.05047703 434.87363815 C256.91830984 428.85547307 256.46387074 422.49873671 256.41503906 415.97180176 C256.41893536 414.52976393 256.42457844 413.08772995 256.43180996 411.64570498 C256.44653628 407.69625873 256.43640026 403.74721233 256.42207325 399.79777908 C256.4109508 395.53314525 256.42291045 391.26856693 256.43191528 387.00393677 C256.44584252 378.65360396 256.43829469 370.30342248 256.4232397 361.9530969 C256.40636611 352.22289399 256.40959173 342.49272865 256.41333378 332.76251563 C256.41921175 315.39497093 256.40504498 298.02749874 256.38038635 280.65997314 C256.35648061 263.82075277 256.34937643 246.98162932 256.35987854 230.14239502 C256.37129966 211.79680671 256.37320191 193.45126324 256.35878044 175.10567546 C256.35725465 173.14750465 256.3557343 171.18933384 256.35421944 169.23116302 C256.35346162 168.26777288 256.35270381 167.30438273 256.35192303 166.31179895 C256.34718827 159.53561033 256.34902601 152.75944178 256.35328484 145.98325348 C256.35822256 137.7177735 256.35217837 129.452385 256.33239054 121.18692592 C256.32254898 116.97278531 256.31737927 112.7587837 256.32528305 108.54463577 C256.33238171 104.68053864 256.32543835 100.81672092 256.30767942 96.95266041 C256.30366173 95.5610451 256.3045893 94.16940398 256.31119829 92.77779856 C256.38513203 75.74070327 252.3580605 60.90993786 240.32008362 48.39044189 C228.86351788 37.677809 215.60769415 32.9897515 200.0930481 32.99327087 C199.21645772 32.98959419 198.33986735 32.9859175 197.43671364 32.9821294 C194.50533422 32.97113443 191.5739903 32.9672558 188.64259338 32.96343994 C186.53799325 32.95717201 184.43339422 32.95052491 182.32879639 32.94352722 C175.420952 32.92251932 168.51310749 32.91212616 161.60523987 32.90216064 C159.22260464 32.89811152 156.83996952 32.89399455 154.45733452 32.88981056 C143.25908705 32.8707641 132.06084615 32.85653333 120.8625856 32.84819859 C107.9599326 32.83843547 95.05745157 32.81213765 82.15485913 32.7716977 C72.16732377 32.74147476 62.17983752 32.72672376 52.19225734 32.72341758 C46.23433127 32.72107369 40.27658902 32.71219967 34.31871223 32.68695641 C28.70685255 32.66356326 23.09529627 32.65948753 17.48340034 32.66971779 C15.433675 32.67021057 13.38393414 32.66396697 11.33425522 32.65016174 C-9.92564003 32.51508442 -26.91557396 35.97547451 -42.08616638 52.14044189 Z " fill="#000000" transform="translate(165.08616638183594,17.85955810546875)"/>
</svg>
