<?xml version="1.0" encoding="UTF-8"?>
<svg version="1.1" xmlns="http://www.w3.org/2000/svg" width="512" height="512">
<path d="M0 0 C4.37317227 2.18658613 7.43901378 4.82654097 10 9 C11.42580538 14.02674452 11.36440988 18.27118024 9 23 C3.06985484 30.68989374 -4.23063572 37.36476261 -11.09545898 44.20898438 C-12.41688673 45.53012965 -13.73809354 46.85149596 -15.05909729 48.17306519 C-18.62658185 51.74083538 -22.19713018 55.30552483 -25.76825595 58.86964989 C-29.50697527 62.60209669 -33.24284249 66.33739602 -36.97901917 70.0723877 C-44.04580766 77.13607434 -51.11514028 84.19720908 -58.18540102 91.25742006 C-66.23817814 99.29900038 -74.28809894 107.34343741 -82.33778656 115.38811016 C-98.8886918 131.92857699 -115.44316297 148.46547099 -132 165 C-130.6602925 167.97830369 -129.1866657 170.06256786 -126.88030815 172.36578751 C-125.91291783 173.33915098 -125.91291783 173.33915098 -124.92598426 174.33217835 C-124.21587546 175.03646147 -123.50576666 175.7407446 -122.7741394 176.46636963 C-122.02105692 177.22116096 -121.26797444 177.9759523 -120.49207127 178.75361609 C-117.96022192 181.28876716 -115.42127651 183.81669057 -112.88232422 186.34472656 C-111.06881492 188.1576719 -109.25574554 189.9710574 -107.44308472 191.78485107 C-103.53585182 195.69253983 -99.62557063 199.59713769 -95.71249008 203.49897003 C-90.05483837 209.14036931 -84.40271579 214.78728158 -78.75192846 220.43555567 C-69.58380647 229.59930016 -60.41122681 238.7585692 -51.23583984 247.91503906 C-42.32269026 256.80983128 -33.41164317 265.70672116 -24.50341797 274.60644531 C-23.95433623 275.1550016 -23.40525449 275.7035579 -22.83953391 276.26873711 C-20.08497168 279.02068926 -17.33045076 281.77268277 -14.57595038 284.52469683 C8.27629879 307.35621177 31.13578344 330.18046937 54 353 C57.93115386 351.17754066 60.62916637 348.63699718 63.64169312 345.57862854 C64.20032409 345.01958971 64.75895507 344.46055089 65.33451426 343.88457149 C67.20614465 342.00920914 69.07052508 340.12680117 70.93505859 338.24438477 C72.27519788 336.89877033 73.61580083 335.55361753 74.95683289 334.20889282 C77.84449603 331.3115147 80.72907099 328.41110843 83.61137009 325.50839424 C88.16931691 320.918653 92.73539762 316.33706312 97.30288696 311.75682068 C108.64747133 300.37813808 119.98276161 288.99020873 131.31317139 277.59741211 C140.11668482 268.74545136 148.92335478 259.89669004 157.74063551 251.05843967 C162.28140296 246.50614719 166.81513508 241.94699668 171.34373069 237.38259709 C174.1635773 234.54355416 176.98966549 231.7107889 179.81752968 228.87973404 C181.12706771 227.56617801 182.43401956 226.25003782 183.73816872 224.93113136 C185.52001284 223.12985622 187.31092077 221.33809566 189.1043396 219.5483551 C189.61719399 219.02539795 190.13004838 218.5024408 190.65844381 217.96363646 C194.45192619 214.2070967 198.24041641 211.42327448 203.59765625 210.6015625 C210.49976174 210.66719266 213.56184582 211.88693305 218.8125 216.4375 C221.82710685 220.24391814 221.56031275 224.3201893 221.56640625 229 C220.34391246 235.47500159 215.32697976 239.96890463 210.82249451 244.46511841 C210.20613807 245.08812265 209.58978164 245.7111269 208.95474774 246.35301006 C206.89701103 248.43036394 204.83224217 250.50057711 202.76733398 252.57080078 C201.28669626 254.06233897 199.80644582 255.55426169 198.32655334 257.04653931 C194.31071452 261.09283607 190.28818772 265.13241634 186.26344943 269.16985941 C183.74722501 271.6941776 181.23204817 274.21953524 178.71714973 276.74517441 C170.84273159 284.65229547 162.96392555 292.55500882 155.07924312 300.45189488 C145.98733419 309.55806097 136.91043516 318.67884932 127.84613937 327.81250012 C120.83154187 334.878907 113.803527 341.93178633 106.76530129 348.97465885 C102.56511906 353.1782359 98.37084042 357.38732409 94.19054985 361.61069107 C90.25700558 365.58405791 86.30703317 369.54033126 82.34403038 373.48431015 C80.8960391 374.93103797 79.45397206 376.38372451 78.01848984 377.84286499 C64.37360087 391.69962472 64.37360087 391.69962472 54 394 C52.71806466 394.39536915 51.43857317 394.79881665 50.16255188 395.21287537 C49.00071884 395.54924515 47.8388858 395.88561493 46.6418457 396.23217773 C45.65492123 396.5195954 45.65492123 396.5195954 44.64805889 396.81281948 C42.49162889 397.43990285 40.33373001 398.06175898 38.17578125 398.68359375 C36.61635774 399.13598663 35.05703424 399.58872438 33.49780273 400.04177856 C30.17074605 401.00776732 26.84304518 401.97149075 23.51480103 402.93338013 C18.25446471 404.45371011 12.99563545 405.97920563 7.73706055 407.50561523 C2.29379603 409.08538132 -3.14955972 410.6648289 -8.59342957 412.24250793 C-25.74981367 417.21457803 -42.89997604 422.2078619 -60.04776001 427.20950317 C-63.10697772 428.10174853 -66.16636266 428.99341652 -69.22592163 429.88449097 C-70.32765795 430.20546942 -70.32765795 430.20546942 -71.45165157 430.53293228 C-72.90195558 430.95520708 -74.35240105 431.37699635 -75.80299473 431.79827499 C-79.24093165 432.79773416 -82.67552002 433.80641224 -86.10389709 434.83822632 C-91.59015889 436.48230208 -97.0279708 438.07158407 -102.65722656 439.1550293 C-118.26244422 442.36918663 -127.50606526 452.93974076 -137.95672607 464.17028809 C-141.26323127 467.70745322 -144.62862742 471.18882409 -147.9881897 474.67549133 C-149.76339358 476.52468277 -151.52703719 478.38506314 -153.27719116 480.25798035 C-162.82226973 490.34771382 -162.82226973 490.34771382 -170.125 490.5625 C-180.10419459 490.05136783 -189.80181382 482.48577532 -198.1875 477.5 C-206.56890542 472.56170962 -214.99772883 467.72711088 -223.5 463 C-232.71631379 457.87146913 -241.85290597 452.62380819 -250.9387207 447.26757812 C-256.21271693 444.16948106 -261.51702764 441.14835602 -266.88671875 438.21875 C-268.02302734 437.59613281 -269.15933594 436.97351563 -270.33007812 436.33203125 C-272.5117361 435.14157448 -274.69898242 433.96128237 -276.89257812 432.79296875 C-283.09053599 429.4049135 -287.76053424 426.47893153 -291 420 C-291.23828125 417.609375 -291.23828125 417.609375 -291.3125 414.75 C-291.34988281 413.81671875 -291.38726562 412.8834375 -291.42578125 411.921875 C-290.48781753 405.48520654 -285.45591092 401.25715891 -280.86132812 397.07861328 C-279.60590895 395.91583472 -278.35109532 394.7524021 -277.09680176 393.58840942 C-276.43499405 392.97701237 -275.77318634 392.36561531 -275.09132385 391.73569107 C-270.77063793 387.7184811 -266.52121921 383.62558733 -262.25952911 379.54600716 C-258.54984409 376.00270529 -254.81994203 372.48843972 -251.02929688 369.03173828 C-229.41682814 349.26797326 -218.37187393 332.84116595 -212.18145752 304.18798828 C-210.43138847 296.24622503 -208.01667222 288.49417773 -205.67514801 280.71116638 C-204.35942074 276.31063981 -203.08878475 271.89717098 -201.81494141 267.484375 C-201.29828664 265.69982039 -200.78146022 263.91531547 -200.26446533 262.13085938 C-200.00596046 261.23829437 -199.7474556 260.34572937 -199.48111725 259.42611694 C-198.12404393 254.74312397 -196.76395262 250.06100811 -195.40380859 245.37890625 C-195.13204552 244.44336725 -194.86028244 243.50782825 -194.58028412 242.54393959 C-194.03409829 240.66375618 -193.48789981 238.78357644 -192.94168854 236.90340042 C-191.61334736 232.33070253 -190.2854286 227.75788199 -188.95751953 223.18505859 C-188.70457878 222.31408224 -188.45163803 221.44310589 -188.19103241 220.54573631 C-187.02055469 216.51516958 -185.85032524 212.48453122 -184.68084717 208.45367432 C-182.4829835 200.87862946 -180.28081101 193.30488528 -178.06851196 185.73403931 C-177.44611616 183.60067738 -176.82577025 181.46671619 -176.20761108 179.3321228 C-175.37547428 176.45942129 -174.53637739 173.58884796 -173.6953125 170.71875 C-173.462108 169.90735062 -173.2289035 169.09595123 -172.9886322 168.25996399 C-172.76824783 167.51353134 -172.54786346 166.76709869 -172.32080078 165.99804688 C-172.04419113 165.04810852 -172.04419113 165.04810852 -171.76199341 164.07897949 C-169.51596028 157.9510304 -166.38183065 153.95036861 -161.81971741 149.44549561 C-161.19110933 148.81291312 -160.56250126 148.18033064 -159.91484445 147.528579 C-157.81235936 145.41649027 -155.69934733 143.31526576 -153.58618164 141.21386719 C-152.07437699 139.69963399 -150.56321843 138.18475549 -149.05265808 136.66928101 C-144.95216201 132.55938232 -140.84231764 128.45895128 -136.73046422 124.36041927 C-132.43006427 120.07133571 -128.13738017 115.77454214 -123.84361267 111.4788208 C-116.63344487 104.26777023 -109.41732025 97.06272352 -102.19750977 89.86132812 C-93.84610152 81.53109921 -85.50356961 73.19206278 -77.16586405 64.84812045 C-69.14818643 56.82475227 -61.12485658 48.80706059 -53.09872246 40.7921524 C-49.68118949 37.37926827 -46.26555346 33.96450203 -42.85139656 30.54824066 C-38.83332478 26.52828803 -34.81030452 22.51335413 -30.78337288 18.50227737 C-29.3045972 17.02775109 -27.82752284 15.55151636 -26.35226059 14.07347488 C-24.341845 12.05984639 -22.32540315 10.05245528 -20.30726624 8.04656982 C-19.72175792 7.45728219 -19.13624961 6.86799455 -18.53299862 6.26084971 C-12.58841906 0.38017116 -8.26983231 -1.05989939 0 0 Z M-148 196 C-153.87915386 213.96693043 -159.0405578 232.14998051 -164.29978561 250.30512238 C-166.60551093 258.26293705 -168.91576865 266.21943718 -171.2265625 274.17578125 C-171.47794668 275.0416259 -171.72933086 275.90747055 -171.98833275 276.79955292 C-175.08862634 287.47508618 -178.21413096 298.14213979 -181.3984375 308.79296875 C-181.71229904 309.84449631 -182.02616058 310.89602386 -182.34953308 311.97941589 C-183.73902524 316.6309187 -185.13584473 321.28000467 -186.54516602 325.92553711 C-187.01861781 327.50497788 -187.49186002 329.0844815 -187.96484375 330.6640625 C-188.17615936 331.34981857 -188.38747498 332.03557465 -188.60519409 332.74211121 C-190.13774269 337.81254982 -190.13774269 337.81254982 -190 343 C-188.16518313 345.57312871 -185.92717574 347.70345092 -183.66601562 349.90161133 C-182.99301926 350.57533783 -182.32002289 351.24906433 -181.62663269 351.94320679 C-179.39815132 354.16820346 -177.1524807 356.37496647 -174.90625 358.58203125 C-173.3581665 360.12078988 -171.81118292 361.66065582 -170.26525879 363.20158386 C-166.19251493 367.25523275 -162.10497969 371.29364378 -158.01422119 375.32910156 C-153.84292104 379.44926422 -149.68573108 383.58360917 -145.52734375 387.71679688 C-137.36533852 395.82517016 -129.18764276 403.91752146 -121 412 C-102.4083776 406.84342851 -83.8668959 401.5221136 -65.33886337 396.14265442 C-63.0969112 395.4918462 -60.85482515 394.84150108 -58.61270142 394.19128418 C-31.05413421 386.19870214 -3.51851249 378.12949045 24 370 C24.29886666 367.09544198 24.29886666 367.09544198 22.90469366 365.53094751 C22.38577832 365.01262926 21.86686298 364.494311 21.33222294 363.96028614 C20.73717899 363.35865235 20.14213505 362.75701856 19.52905947 362.13715345 C18.53205441 361.152233 18.53205441 361.152233 17.51490784 360.14741516 C16.81732595 359.44656443 16.11974406 358.7457137 15.40102333 358.02362508 C13.04731405 355.66259718 10.68298268 353.31249754 8.31860352 350.9621582 C6.63488077 349.27764514 4.9518107 347.59247949 3.26934814 345.90670776 C-0.83616119 341.79658512 -4.94858208 337.69347449 -9.06418591 333.59346167 C-13.85212103 328.82303418 -18.63201869 324.04458747 -23.41153527 319.2657279 C-31.93634718 310.74260517 -40.4682079 302.22657377 -49.00415039 293.71459961 C-57.29605881 285.44595756 -65.58340016 277.17277543 -73.86547852 268.89428711 C-74.63079478 268.129305 -74.63079478 268.129305 -75.41157197 267.34886871 C-76.43932619 266.32155708 -77.46708012 265.29424517 -78.49483377 264.26693298 C-79.25522338 263.50687272 -79.25522338 263.50687272 -80.03097439 262.73145771 C-80.53658058 262.2260675 -81.04218678 261.72067729 -81.56311437 261.19997223 C-89.44397518 253.32280827 -97.32866504 245.44947776 -105.21388487 237.57667762 C-108.07654769 234.71845652 -110.93870724 231.85973256 -113.80052214 229.00066248 C-118.76171624 224.04430527 -123.72552319 219.09058415 -128.69224548 214.13976669 C-130.34556391 212.49098719 -131.99802753 210.84135004 -133.64959908 209.19082069 C-135.89339552 206.94875841 -138.14022427 204.70978185 -140.38792419 202.47163391 C-141.38158317 201.47667521 -141.38158317 201.47667521 -142.39531606 200.46161634 C-144.82221877 197.44411273 -144.82221877 197.44411273 -148 196 Z M-210.67677307 370.55651855 C-211.76598305 371.64905945 -211.76598305 371.64905945 -212.87719727 372.76367188 C-214.10836021 373.99494812 -214.10836021 373.99494812 -215.36439514 375.25109863 C-216.25605881 376.14792358 -217.14772247 377.04474854 -218.06640625 377.96875 C-219.42934059 379.33380676 -219.42934059 379.33380676 -220.81980896 380.72644043 C-223.24031969 383.15077694 -225.65781302 385.57810106 -228.07470703 388.00604248 C-230.53953875 390.48108703 -233.00718902 392.95331783 -235.47460938 395.42578125 C-240.31918121 400.28109147 -245.16057376 405.13956116 -250 410 C-247.15048424 412.93135846 -244.5811763 414.99934742 -240.984375 416.9609375 C-239.9929248 417.50758057 -239.00147461 418.05422363 -237.97998047 418.61743164 C-236.91408691 419.1974292 -235.84819336 419.77742676 -234.75 420.375 C-232.4755423 421.62966278 -230.20212992 422.88622208 -227.9296875 424.14453125 C-227.35078766 424.46455612 -226.77188782 424.78458099 -226.17544556 425.11430359 C-220.35511414 428.33981123 -214.61145508 431.69079186 -208.875 435.0625 C-197.32452677 441.84154145 -185.67902889 448.44537571 -174 455 C-168.00499003 450.03805145 -162.53572963 444.6523376 -157.0625 439.125 C-156.18787109 438.24585938 -155.31324219 437.36671875 -154.41210938 436.4609375 C-152.27242952 434.3095654 -150.13513403 432.15588208 -148 430 C-153.67765592 423.06894071 -160.02935428 416.82529124 -166.36328125 410.50390625 C-167.56314957 409.3033635 -168.76286947 408.1026724 -169.96244812 406.90184021 C-172.46300989 404.39981147 -174.96535342 401.89958246 -177.46899414 399.40063477 C-180.68498711 396.19037569 -183.89641998 392.97559795 -187.10656452 389.75949192 C-189.57619793 387.28625737 -192.04819263 384.81539407 -194.52092552 382.34525871 C-195.70705849 381.15979434 -196.8924449 379.97358252 -198.07708168 378.786623 C-199.7238745 377.13730702 -201.37380979 375.49120247 -203.0246582 373.84594727 C-203.51657654 373.3520047 -204.00849487 372.85806213 -204.51531982 372.34915161 C-207.38534632 368.78985086 -207.38534632 368.78985086 -210.67677307 370.55651855 Z " fill="#000000" transform="translate(291,11)"/>
</svg>
